<?xml version="1.0" encoding="utf-8"?>
<!-- Generator: Adobe Illustrator 19.2.1, SVG Export Plug-In . SVG Version: 6.00 Build 0)  -->
<svg version="1.1" id="Layer_1" xmlns="http://www.w3.org/2000/svg" xmlns:xlink="http://www.w3.org/1999/xlink" x="0px" y="0px"
	 viewBox="0 0 64 64" style="enable-background:new 0 0 64 64;" xml:space="preserve">
<style type="text/css">
	.st0{fill:none;}
	.st1{fill:#333333;}
</style>
<g id="Layer_3_1_">
	<g>
		<path class="st0" d="M22.4,25.8c0.6-0.8,1-1.7,1-2.6c0-0.1,0-0.1,0-0.2c0-0.1,0-0.1,0-0.2c-0.4,0-0.9,0.2-1.4,0.4
			c-0.5,0.3-0.9,0.6-1.2,1c-0.7,0.8-1,1.6-1,2.5c0,0.1,0,0.1,0,0.2c0,0.1,0,0.1,0,0.2C20.8,27.2,21.7,26.7,22.4,25.8z"/>
		<path class="st0" d="M35.3,23.8h-2.8v3.9h-2.1v2.1h2.1v7.7c0,0.5,0.1,1,0.2,1.4c0.1,0.4,0.3,0.8,0.5,1c0.3,0.3,0.6,0.5,1.1,0.6
			c0.5,0.1,1.1,0.2,1.8,0.2c0.3,0,0.6,0,0.9,0c0.3,0,0.6-0.1,0.9-0.1v-2.2c-0.2,0.1-0.4,0.1-0.6,0.1c-0.2,0-0.4,0-0.6,0
			c-0.3,0-0.6,0-0.7-0.1c-0.2-0.1-0.3-0.2-0.4-0.3c-0.1-0.2-0.2-0.3-0.2-0.6c0-0.2,0-0.5,0-0.8v-7h2.5v-2.1h-2.5L35.3,23.8
			L35.3,23.8z"/>
		<path class="st0" d="M24.7,32.6c0-1.5,0.6-2.7,2-3.5c-0.8-1.1-1.9-1.7-3.3-1.8c-0.5-0.1-1.2,0.1-2,0.4c-0.9,0.3-1.4,0.5-1.5,0.5
			c-0.2,0-0.7-0.1-1.3-0.4c-0.7-0.3-1.2-0.4-1.7-0.4c-0.8,0-1.5,0.2-2.1,0.6c-0.7,0.4-1.2,1-1.6,1.7c-0.5,0.9-0.8,2-0.8,3.2
			c0,1.1,0.2,2.2,0.6,3.4c0.4,1.1,0.8,2,1.3,2.8c0.5,0.7,0.9,1.3,1.3,1.6c0.5,0.5,1.1,0.8,1.6,0.7c0.3,0,0.8-0.1,1.4-0.4
			c0.5-0.2,1.1-0.4,1.6-0.4c0.5,0,1,0.1,1.5,0.4c0.6,0.2,1.1,0.4,1.4,0.4c0.6,0,1.1-0.3,1.6-0.7c0.2-0.1,0.4-0.4,0.6-0.6
			c0.2-0.3,0.4-0.6,0.7-0.9c0.2-0.3,0.3-0.5,0.5-0.8c0.2-0.3,0.3-0.6,0.5-1c0.1-0.1,0.1-0.3,0.2-0.4c0-0.1,0.1-0.3,0.1-0.4
			c-0.4-0.2-0.9-0.5-1.2-0.8C25.1,34.8,24.7,33.8,24.7,32.6z"/>
		<polygon class="st0" points="45.5,37.7 45.5,37.7 42.2,27.7 39.2,27.7 43.8,40.8 47,40.8 51.6,27.7 48.7,27.7 		"/>
		<g>
			<path class="st1" d="M49.8,0.1H14.2C6.4,0.1,0,6.5,0,14.3v35.5C0,57.6,6.4,64,14.2,64h35.6C57.6,64,64,57.6,64,49.8V14.3
				C64,6.5,57.6,0.1,49.8,0.1z M19.8,26.7c0-0.9,0.3-1.7,1-2.5c0.3-0.4,0.7-0.7,1.2-1c0.5-0.3,1-0.4,1.4-0.4c0,0.1,0,0.1,0,0.2
				c0,0.1,0,0.1,0,0.2c0,0.9-0.3,1.8-1,2.6c-0.8,1-1.7,1.4-2.7,1.3c0-0.1,0-0.1,0-0.2C19.8,26.8,19.8,26.8,19.8,26.7z M27,36.9
				c0,0.1-0.1,0.3-0.2,0.4c-0.1,0.3-0.3,0.7-0.5,1c-0.2,0.3-0.3,0.6-0.5,0.8c-0.2,0.4-0.5,0.7-0.7,0.9c-0.2,0.3-0.4,0.5-0.6,0.6
				c-0.5,0.5-1,0.7-1.6,0.7c-0.4,0-0.9-0.1-1.4-0.4c-0.5-0.2-1-0.4-1.5-0.4c-0.5,0-1.1,0.1-1.6,0.4c-0.6,0.2-1,0.4-1.4,0.4
				c-0.5,0-1.1-0.2-1.6-0.7c-0.4-0.3-0.8-0.9-1.3-1.6c-0.5-0.8-1-1.7-1.3-2.8c-0.4-1.1-0.6-2.2-0.6-3.4c0-1.2,0.3-2.3,0.8-3.2
				c0.4-0.7,0.9-1.3,1.6-1.7c0.7-0.4,1.4-0.6,2.1-0.6c0.5,0,1,0.1,1.7,0.4c0.6,0.3,1.1,0.4,1.3,0.4c0.1,0,0.6-0.2,1.5-0.5
				c0.8-0.3,1.5-0.4,2-0.4c1.5,0.1,2.6,0.8,3.3,1.8c-1.3,0.8-2,2-2,3.5c0,1.2,0.4,2.1,1.2,2.9c0.4,0.4,0.8,0.6,1.2,0.8
				C27.1,36.6,27.1,36.7,27,36.9z M37.8,29.9h-2.5v7c0,0.3,0,0.6,0,0.8c0,0.2,0.1,0.4,0.2,0.6c0.1,0.2,0.2,0.3,0.4,0.3
				c0.2,0.1,0.4,0.1,0.7,0.1c0.2,0,0.4,0,0.6,0c0.2,0,0.4,0,0.6-0.1v2.2c-0.3,0-0.6,0.1-0.9,0.1c-0.3,0-0.6,0-0.9,0
				c-0.7,0-1.3-0.1-1.8-0.2c-0.5-0.1-0.8-0.4-1.1-0.6c-0.3-0.3-0.4-0.6-0.5-1c-0.1-0.4-0.1-0.9-0.2-1.4v-7.7h-2.1v-2.1h2.1v-3.9h2.8
				v3.9h2.5L37.8,29.9L37.8,29.9z M47,40.8h-3.2l-4.6-13h3.1l3.2,10h0.1l3.1-10h2.9L47,40.8z"/>
		</g>
	</g>
</g>
<g id="ipod_tab_logo">
</g>
</svg>
